<svg width="1200" height="630" viewBox="0 0 1200 630" xmlns="http://www.w3.org/2000/svg"><clipPath id="satori_cp-id"><rect x="0" y="0" width="1200" height="630"/></clipPath><mask id="satori_om-id"><rect x="0" y="0" width="1200" height="630" fill="#fff"/></mask><rect x="0" y="0" width="1200" height="630" fill="#050505"/><defs><pattern id="satori_pattern_id-0_0" x="0" y="0" width="1" height="1" patternUnits="objectBoundingBox"><radialGradient id="satori_radial_id-0_0" spreadMethod="pad"><stop offset="0" stop-color="rgba(255,31,31,0.22)"/><stop offset="0.7" stop-color="transparent"/><stop offset="1" stop-color="transparent"/></radialGradient><mask id="satori_mask_id-0_0"><rect x="0" y="0" width="500" height="500" fill="#fff"/></mask><rect x="0" y="0" width="500" height="500" fill="transparent"/><circle cx="250" cy="250" width="500" height="500" r="353.5533905932738" fill="url(#satori_radial_id-0_0)" mask="url(#satori_mask_id-0_0)"/></pattern></defs><mask id="satori_om-id-0"><rect x="780" y="-100" width="500" height="500" fill="#fff" mask="url(#satori_om-id)"/></mask><path x="780" y="-100" width="500" height="500" fill="url(#satori_pattern_id-0_0)" d="M1030,-100 h0 a250,250 0 0 1 250,250 v0 a250,250 0 0 1 -250,250 h0 a250,250 0 0 1 -250,-250 v0 a250,250 0 0 1 250,-250" clip-path="url(#satori_cp-id)" mask="url(#satori_om-id)"/><defs><pattern id="satori_pattern_id-1_1" x="NaN" y="NaN" width="Infinity" height="Infinity" patternUnits="objectBoundingBox"><linearGradient id="satori_biid-1_1" x1="0" y1="0" x2="1" y2="0" spreadMethod="pad"><stop offset="0%" stop-color="rgba(255,255,255,0.025)"/><stop offset="1.6666666666666667%" stop-color="rgba(255,255,255,0.025)"/><stop offset="1.6666666666666667%" stop-color="transparent"/><stop offset="100%" stop-color="transparent"/></linearGradient><rect x="0" y="0" width="60" height="60" fill="url(#satori_biid-1_1)"/></pattern><pattern id="satori_pattern_id-1_0" x="NaN" y="NaN" width="Infinity" height="Infinity" patternUnits="objectBoundingBox"><linearGradient id="satori_biid-1_0" x1="0" y1="0" x2="0" y2="1" spreadMethod="pad"><stop offset="0%" stop-color="rgba(255,255,255,0.025)"/><stop offset="1.6666666666666667%" stop-color="rgba(255,255,255,0.025)"/><stop offset="1.6666666666666667%" stop-color="transparent"/><stop offset="100%" stop-color="transparent"/></linearGradient><rect x="0" y="0" width="60" height="60" fill="url(#satori_biid-1_0)"/></pattern></defs><mask id="satori_om-id-1"><rect x="80" y="64" width="0" height="0" fill="#fff" mask="url(#satori_om-id)"/></mask><rect x="80" y="64" width="0" height="0" fill="url(#satori_pattern_id-1_1)" clip-path="url(#satori_cp-id)" mask="url(#satori_om-id)"/><rect x="80" y="64" width="0" height="0" fill="url(#satori_pattern_id-1_0)" clip-path="url(#satori_cp-id)" mask="url(#satori_om-id)"/><mask id="satori_om-id-2"><rect x="80" y="64" width="1040" height="17" fill="#fff" mask="url(#satori_om-id)"/></mask><mask id="satori_om-id-2-0"><rect x="80" y="68" width="10" height="10" fill="#fff" mask="url(#satori_om-id)"/></mask><path x="80" y="68" width="10" height="10" fill="#ff1f1f" d="M85,68 h0 a5,5 0 0 1 5,5 v0 a5,5 0 0 1 -5,5 h0 a5,5 0 0 1 -5,-5 v0 a5,5 0 0 1 5,-5" clip-path="url(#satori_cp-id)" mask="url(#satori_om-id)"/><mask id="satori_om-id-2-1"><rect x="102" y="64" width="298" height="17" fill="#fff" mask="url(#satori_om-id)"/></mask><text x="102" y="78" width="81.00909090909092" height="16.94318181818182" font-weight="normal" font-style="normal" font-size="14" font-family="inter,sans-serif" letter-spacing="2.8000000000000003" clip-path="url(#satori_cp-id)" fill="rgba(255,255,255,0.35)">RITOBAN</text><text x="183.0090909090909" y="78" width="9.243181818181819" height="16.94318181818182" font-weight="normal" font-style="normal" font-size="14" font-family="inter,sans-serif" letter-spacing="2.8000000000000003" clip-path="url(#satori_cp-id)" fill="rgba(255,255,255,0.35)">-</text><text x="192.25227272727273" y="78" width="88.48636363636363" height="16.94318181818182" font-weight="normal" font-style="normal" font-size="14" font-family="inter,sans-serif" letter-spacing="2.8000000000000003" clip-path="url(#satori_cp-id)" fill="rgba(255,255,255,0.35)">GOSWAMI</text><text x="280.7386363636364" y="78" width="6.657954545454546" height="16.94318181818182" font-weight="normal" font-style="normal" font-size="14" font-family="inter,sans-serif" letter-spacing="2.8000000000000003" clip-path="url(#satori_cp-id)" fill="rgba(255,255,255,0.35)">.</text><text x="287.39659090909095" y="78" width="70.01590909090909" height="16.94318181818182" font-weight="normal" font-style="normal" font-size="14" font-family="inter,sans-serif" letter-spacing="2.8000000000000003" clip-path="url(#satori_cp-id)" fill="rgba(255,255,255,0.35)">VERCEL</text><text x="357.4125" y="78" width="6.657954545454546" height="16.94318181818182" font-weight="normal" font-style="normal" font-size="14" font-family="inter,sans-serif" letter-spacing="2.8000000000000003" clip-path="url(#satori_cp-id)" fill="rgba(255,255,255,0.35)">.</text><text x="364.0704545454546" y="78" width="35.64431818181818" height="16.94318181818182" font-weight="normal" font-style="normal" font-size="14" font-family="inter,sans-serif" letter-spacing="2.8000000000000003" clip-path="url(#satori_cp-id)" fill="rgba(255,255,255,0.35)">APP</text><mask id="satori_om-id-3"><rect x="80" y="202" width="1040" height="210" fill="#fff" mask="url(#satori_om-id)"/></mask><mask id="satori_om-id-3-0"><rect x="80" y="202" width="1040" height="82" fill="#fff" mask="url(#satori_om-id)"/></mask><text x="80" y="278" width="408.085909090909" height="81.6" font-weight="900" font-style="normal" font-size="96" font-family="inter,sans-serif" letter-spacing="-3.84" clip-path="url(#satori_cp-id)" fill="#ffffff">RITOBAN</text><mask id="satori_om-id-3-1"><rect x="120" y="284" width="1000" height="71" fill="#fff" mask="url(#satori_om-id)"/></mask><text x="120" y="350" width="411.30528409090914" height="71.39999999999999" font-weight="900" font-style="normal" font-size="84" font-family="inter,sans-serif" letter-spacing="-3.36" clip-path="url(#satori_cp-id)" stroke-width="1px" stroke="rgba(255,255,255,0.2)" stroke-linejoin="round" paint-order="stroke" fill="transparent">GOSWAMI</text><mask id="satori_om-id-3-2"><rect x="80" y="395" width="1040" height="17" fill="#fff" mask="url(#satori_om-id)"/></mask><mask id="satori_om-id-3-2-0"><rect x="80" y="403" width="48" height="1" fill="#fff" mask="url(#satori_om-id)"/></mask><rect x="80" y="403" width="48" height="1" fill="#ff1f1f" clip-path="url(#satori_cp-id)" mask="url(#satori_om-id)"/><mask id="satori_om-id-3-2-1"><rect x="148" y="395" width="254" height="17" fill="#fff" mask="url(#satori_om-id)"/></mask><text x="148" y="409" width="53.94375" height="16.94318181818182" font-weight="normal" font-style="normal" font-size="14" font-family="inter,sans-serif" letter-spacing="4.8999999999999995" clip-path="url(#satori_cp-id)" fill="rgba(255,255,255,0.5)">FULL</text><text x="201.94375" y="409" width="11.343181818181819" height="16.94318181818182" font-weight="normal" font-style="normal" font-size="14" font-family="inter,sans-serif" letter-spacing="4.8999999999999995" clip-path="url(#satori_cp-id)" fill="rgba(255,255,255,0.5)">-</text><text x="213.2869318181818" y="409" width="71.19318181818181" height="16.94318181818182" font-weight="normal" font-style="normal" font-size="14" font-family="inter,sans-serif" letter-spacing="4.8999999999999995" clip-path="url(#satori_cp-id)" fill="rgba(255,255,255,0.5)">STACK</text><text x="284.4801136363636" y="409" width="8.837499999999999" height="16.94318181818182" font-weight="normal" font-style="normal" font-size="14" font-family="inter,sans-serif" letter-spacing="4.8999999999999995" clip-path="url(#satori_cp-id)" fill="rgba(255,255,255,0.5)"> </text><text x="293.3176136363636" y="409" width="108.44431818181816" height="16.94318181818182" font-weight="normal" font-style="normal" font-size="14" font-family="inter,sans-serif" letter-spacing="4.8999999999999995" clip-path="url(#satori_cp-id)" fill="rgba(255,255,255,0.5)">ENGINEER</text><mask id="satori_om-id-4"><rect x="80" y="532" width="1040" height="34" fill="#fff" mask="url(#satori_om-id)"/></mask><defs><clipPath id="satori_bc-id-4-0" clip-path="url(#satori_cp-id)"><rect x="80" y="532" width="95" height="34"/></clipPath></defs><mask id="satori_om-id-4-0"><rect x="81" y="533" width="93" height="32" fill="#fff" mask="url(#satori_om-id)"/><path width="95" height="34" fill="none" stroke="#000" stroke-width="2" d="M80,532 A0,0 0 0 1 80,532 h95 a0,0 0 0 1 0,0 v34 a0,0 0 0 1 0,0 h-95 a0,0 0 0 1 0,0 v-34 A0,0 0 0 1 80,532"/></mask><path width="95" height="34" clip-path="url(#satori_bc-id-4-0)" fill="none" stroke="rgba(255,255,255,0.1)" stroke-width="2" d="M80,532 A0,0 0 0 1 80,532 h95 a0,0 0 0 1 0,0 v34 a0,0 0 0 1 0,0 h-95 a0,0 0 0 1 0,0 v-34 A0,0 0 0 1 80,532"/><text x="101" y="554" width="52.424715909090914" height="15.732954545454545" font-weight="normal" font-style="normal" font-size="13" font-family="inter,sans-serif" letter-spacing="1.95" clip-path="url(#satori_cp-id)" fill="rgba(255,255,255,0.4)">REACT</text><defs><clipPath id="satori_bc-id-4-1" clip-path="url(#satori_cp-id)"><rect x="187" y="532" width="109" height="34"/></clipPath></defs><mask id="satori_om-id-4-1"><rect x="188" y="533" width="107" height="32" fill="#fff" mask="url(#satori_om-id)"/><path width="109" height="34" fill="none" stroke="#000" stroke-width="2" d="M187,532 A0,0 0 0 1 187,532 h109 a0,0 0 0 1 0,0 v34 a0,0 0 0 1 0,0 h-109 a0,0 0 0 1 0,0 v-34 A0,0 0 0 1 187,532"/></mask><path width="109" height="34" clip-path="url(#satori_bc-id-4-1)" fill="none" stroke="rgba(255,255,255,0.1)" stroke-width="2" d="M187,532 A0,0 0 0 1 187,532 h109 a0,0 0 0 1 0,0 v34 a0,0 0 0 1 0,0 h-109 a0,0 0 0 1 0,0 v-34 A0,0 0 0 1 187,532"/><text x="208" y="554" width="42.054261363636364" height="15.732954545454545" font-weight="normal" font-style="normal" font-size="13" font-family="inter,sans-serif" letter-spacing="1.95" clip-path="url(#satori_cp-id)" fill="rgba(255,255,255,0.4)">NEXT</text><text x="250.05426136363636" y="554" width="5.5323863636363635" height="15.732954545454545" font-weight="normal" font-style="normal" font-size="13" font-family="inter,sans-serif" letter-spacing="1.95" clip-path="url(#satori_cp-id)" fill="rgba(255,255,255,0.4)">.</text><text x="255.58664772727272" y="554" width="19.245170454545452" height="15.732954545454545" font-weight="normal" font-style="normal" font-size="13" font-family="inter,sans-serif" letter-spacing="1.95" clip-path="url(#satori_cp-id)" fill="rgba(255,255,255,0.4)">JS</text><defs><clipPath id="satori_bc-id-4-2" clip-path="url(#satori_cp-id)"><rect x="308" y="532" width="78" height="34"/></clipPath></defs><mask id="satori_om-id-4-2"><rect x="309" y="533" width="76" height="32" fill="#fff" mask="url(#satori_om-id)"/><path width="78" height="34" fill="none" stroke="#000" stroke-width="2" d="M308,532 A0,0 0 0 1 308,532 h78 a0,0 0 0 1 0,0 v34 a0,0 0 0 1 0,0 h-78 a0,0 0 0 1 0,0 v-34 A0,0 0 0 1 308,532"/></mask><path width="78" height="34" clip-path="url(#satori_bc-id-4-2)" fill="none" stroke="rgba(255,255,255,0.1)" stroke-width="2" d="M308,532 A0,0 0 0 1 308,532 h78 a0,0 0 0 1 0,0 v34 a0,0 0 0 1 0,0 h-78 a0,0 0 0 1 0,0 v-34 A0,0 0 0 1 308,532"/><text x="329" y="554" width="35.26619318181818" height="15.732954545454545" font-weight="normal" font-style="normal" font-size="13" font-family="inter,sans-serif" letter-spacing="1.95" clip-path="url(#satori_cp-id)" fill="rgba(255,255,255,0.4)">AWS</text><defs><clipPath id="satori_bc-id-4-3" clip-path="url(#satori_cp-id)"><rect x="398" y="532" width="141" height="34"/></clipPath></defs><mask id="satori_om-id-4-3"><rect x="399" y="533" width="139" height="32" fill="#fff" mask="url(#satori_om-id)"/><path width="141" height="34" fill="none" stroke="#000" stroke-width="2" d="M398,532 A0,0 0 0 1 398,532 h141 a0,0 0 0 1 0,0 v34 a0,0 0 0 1 0,0 h-141 a0,0 0 0 1 0,0 v-34 A0,0 0 0 1 398,532"/></mask><path width="141" height="34" clip-path="url(#satori_bc-id-4-3)" fill="none" stroke="rgba(255,255,255,0.1)" stroke-width="2" d="M398,532 A0,0 0 0 1 398,532 h141 a0,0 0 0 1 0,0 v34 a0,0 0 0 1 0,0 h-141 a0,0 0 0 1 0,0 v-34 A0,0 0 0 1 398,532"/><text x="419" y="554" width="98.60795454545456" height="15.732954545454545" font-weight="normal" font-style="normal" font-size="13" font-family="inter,sans-serif" letter-spacing="1.95" clip-path="url(#satori_cp-id)" fill="rgba(255,255,255,0.4)">TYPESCRIPT</text></svg>